<?xml version="1.0" encoding="UTF-8"?>
<svg id="Layer_2" data-name="Layer 2" xmlns="http://www.w3.org/2000/svg" xmlns:xlink="http://www.w3.org/1999/xlink" viewBox="0 0 155.75 46.21">
  <defs>
    <style>
      .cls-1 {
        clip-path: url(#clippath);
      }

      .cls-2 {
        fill: none;
      }

      .cls-2, .cls-3 {
        stroke-width: 0px;
      }

      .cls-3 {
        fill: #fff;
      }
    </style>
    <clipPath id="clippath">
      <rect class="cls-2" width="155.75" height="46.21"/>
    </clipPath>
  </defs>
  <g id="Group_949" data-name="Group 949">
    <g class="cls-1">
      <g id="Group_948" data-name="Group 948">
        <path id="Path_1990" data-name="Path 1990" class="cls-3" d="m8.35,24.4v-5.99h.65c1.92,0,3.51.87,3.51,2.98s-1.63,3.02-3.47,3.02h-.69ZM.02,31.14h11.18c7.41,0,9.69-5.05,9.69-8.89,0-4.18-2.16-6.73-6.23-7.06v-.08c3.53,0,5.78-2.72,5.78-6.22C20.44,2.16,14.71,0,9.81,0H.02v31.14ZM8.35,12.1v-5.36h.81c1.71,0,2.98.78,2.98,2.64,0,2.02-1.59,2.72-3.31,2.72h-.48"/>
        <path id="Path_1991" data-name="Path 1991" class="cls-3" d="m29.12,18.57c0-1.57.1-6.66,2.65-6.66s2.65,5.09,2.65,6.66-.1,6.66-2.65,6.66-2.65-5.1-2.65-6.66m-6.87,0c0,6.13,2.68,13.02,9.52,13.02s9.52-6.89,9.52-13.02-2.68-13.02-9.52-13.02-9.52,6.89-9.52,13.02"/>
        <path id="Path_1992" data-name="Path 1992" class="cls-3" d="m42.71,5.99h6.41l5.38,15.17.07-.07c-.26-2.91-.76-5.78-.76-8.68v-6.42h6.48v25.16h-6.48l-5.01-14.51-.07.07c.16,2.37.46,4.71.46,7.08v7.36h-6.48V5.99Z"/>
        <path id="Path_1993" data-name="Path 1993" class="cls-3" d="m69.61,22.55l.93-5.83c.26-1.57.43-3.16.63-4.73h.07c.16,1.57.3,3.17.49,4.73l.73,5.83h-2.84Zm11.09,8.6l-5.28-25.16h-8.22l-5.97,25.16h6.93l.56-3.26h4.52l.5,3.26h6.96"/>
        <path id="Path_1994" data-name="Path 1994" class="cls-3" d="m83.91,31.15L76.84,0h8.74l1.96,12.8c.37,2.52.57,5,.9,7.52h.08c.37-2.52.49-5,.94-7.52L91.76,0h9.03l-8.38,31.15h-8.5Z"/>
        <rect id="Rectangle_536" data-name="Rectangle 536" class="cls-3" x="100.69" y="5.99" width="6.74" height="25.16"/>
        <path id="Path_1995" data-name="Path 1995" class="cls-3" d="m109.67,22.67c.92,1.41,2.54,2.81,4.26,2.81,1.01.09,1.89-.65,1.98-1.66,0,0,0,0,0-.01.01-.52-.18-1.02-.53-1.41-.33-.37-.71-.7-1.13-.97-1.26-.91-2.38-1.99-3.34-3.21-.91-1.29-1.39-2.84-1.35-4.42,0-2.94,1.85-8.26,7.6-8.26,1.68.03,3.32.47,4.8,1.26v7.63c-.8-1.28-2.41-2.72-3.97-2.72-.9-.04-1.68.64-1.75,1.54.04.53.27,1.03.66,1.4.38.38.79.73,1.23,1.04,1.28.82,2.4,1.86,3.3,3.08.87,1.29,1.3,2.83,1.23,4.38,0,4.68-3.24,8.42-7.93,8.42-1.74,0-3.45-.36-5.05-1.04v-7.88Z"/>
        <path id="Path_1996" data-name="Path 1996" class="cls-3" d="m127.2,31.15V12.1h-3.7v-6.11h14.31v6.11h-3.87v19.05h-6.74Z"/>
        <path id="Path_1997" data-name="Path 1997" class="cls-3" d="m144.52,22.55l.93-5.83c.26-1.57.42-3.16.62-4.73h.06c.17,1.57.3,3.17.5,4.73l.73,5.83h-2.84Zm11.1,8.6l-5.29-25.17h-8.22l-5.98,25.16h6.94l.56-3.26h4.53l.49,3.26h6.97"/>
        <path id="Path_1998" data-name="Path 1998" class="cls-3" d="m122.34,38.07c.06.63-.4,1.19-1.03,1.25-.1,0-.2,0-.3-.01v-2.56l.22-.02c.73,0,1.11.63,1.11,1.35m-1.33,7.35v-3.61c2.58.07,4.32-.81,4.32-3.69s-1.99-3.76-4.58-3.76h-2.7v11.07h2.96"/>
        <path id="Path_1999" data-name="Path 1999" class="cls-3" d="m128.86,39.88c0-.69.04-2.94,1.16-2.94s1.16,2.25,1.16,2.94-.04,2.94-1.16,2.94-1.16-2.25-1.16-2.94m-3.02,0c0,2.7,1.18,5.73,4.18,5.73s4.18-3.03,4.18-5.73-1.17-5.73-4.18-5.73-4.18,3.02-4.18,5.73"/>
        <path id="Path_2000" data-name="Path 2000" class="cls-3" d="m137.88,39.88c0-.69.04-2.94,1.16-2.94s1.16,2.25,1.16,2.94-.04,2.94-1.16,2.94-1.16-2.25-1.16-2.94m-3.02,0c0,2.7,1.18,5.73,4.18,5.73s4.18-3.03,4.18-5.73-1.18-5.73-4.18-5.73-4.18,3.02-4.18,5.73"/>
        <path id="Path_2001" data-name="Path 2001" class="cls-3" d="m143.92,45.41v-11.07h2.96v8.46h2.22v2.61h-5.19Z"/>
        <path id="Path_2002" data-name="Path 2002" class="cls-3" d="m150.04,41.68c.39.69,1.09,1.14,1.88,1.24.44.04.83-.29.87-.73h0c0-.23-.07-.45-.23-.62-.15-.16-.32-.31-.5-.43-.55-.4-1.05-.87-1.47-1.41-.4-.57-.61-1.25-.59-1.94-.1-1.91,1.37-3.53,3.27-3.63.02,0,.04,0,.07,0,.73.02,1.45.21,2.1.56v3.36c-.36-.65-1.01-1.09-1.74-1.2-.4-.02-.74.28-.77.68.02.24.12.46.29.62.17.16.35.31.54.45.56.36,1.06.82,1.45,1.35.38.57.57,1.24.54,1.92.11,1.93-1.37,3.59-3.3,3.69-.06,0-.12,0-.18,0-.76,0-1.52-.16-2.22-.45v-3.46Z"/>
        <path id="Path_2003" data-name="Path 2003" class="cls-3" d="m116.56,43.72c-8.27,5.61-16.62,0-16.62,0h-.04c-8.27,5.61-16.62,0-16.62,0h-.04c-8.27,5.61-16.62,0-16.62,0h-.04c-8.27,5.61-16.61,0-16.61,0h-.04c-8.27,5.61-16.61,0-16.61,0h-.04c-8.27,5.61-16.62,0-16.62,0h-.04C8.35,49.32,0,43.72,0,43.72v-8.76s8.35,5.6,16.62,0h.04s8.35,5.6,16.62,0h.04s8.35,5.6,16.61,0h.04s8.35,5.6,16.61,0h.04s8.35,5.6,16.62,0h.04s8.35,5.6,16.62,0h.04s8.35,5.6,16.62,0v8.76Z"/>
      </g>
    </g>
  </g>
</svg>