<?xml version="1.0" encoding="UTF-8"?>
<svg id="Layer_2" data-name="Layer 2" xmlns="http://www.w3.org/2000/svg" viewBox="0 0 1481.49 283.62">
  <defs>
    <style>
      .cls-1 {
        fill: #fff;
        stroke-width: 0px;
      }
    </style>
  </defs>
  <g id="Layer_1-2" data-name="Layer 1">
    <path class="cls-1" d="m258.17,56.64c14.24,0,27.89-.12,41.53.18,1.37.03,3.35,2.33,3.92,3.97,8.96,25.78,17.73,51.62,26.56,77.44.74,2.16,1.57,4.28,2.81,7.62,1.11-2.65,1.84-4.1,2.34-5.62,8.5-25.93,17.07-51.85,25.37-77.84,1.36-4.28,3.11-5.96,7.9-5.89,22.83.3,45.66.25,68.49.03,4.06-.04,5.8,1.29,7.08,5.03,9.22,26.92,18.66,53.76,28.05,80.62.37,1.05.92,2.02,1.92,4.2,3.12-9.39,5.89-17.69,8.64-25.99,6.59-19.9,13.13-39.82,19.84-59.68.53-1.56,2.27-3.84,3.48-3.87,13.12-.28,26.24-.17,40.17-.17-3.47,9.04-6.67,17.39-9.87,25.73-15.4,40.08-30.72,80.19-46.23,120.22-5.16,13.31-11.8,25.79-23.22,34.98-15.86,12.75-34.36,15.07-53.82,13.35-3.31-.29-6.58-1.04-9.86-1.61-.3-.05-.57-.29-1.33-.69,3.4-9.63,6.77-19.35,10.35-28.99.33-.88,1.89-1.66,2.98-1.83,1.78-.28,3.69-.23,5.48.06,17.55,2.77,25.38-11.92,30.06-23.71.42-1.06.06-2.65-.39-3.82-15.61-40.35-31.28-80.68-46.96-121-.23-.59-.7-1.07-1.59-2.4-1.05,2.46-1.91,4.3-2.62,6.2-15.23,40.33-30.49,80.64-45.6,121.02-1.1,2.94-2.36,4.25-5.64,4.19-10.66-.19-21.33-.13-31.99-.03-2.6.02-4.28-.5-5.33-3.25-17.17-45.11-34.44-90.18-51.68-135.27-.29-.76-.42-1.58-.84-3.18Z"/>
    <path class="cls-1" d="m120.02,0c0,8.65,0,17.1,0,25.55q0,10.08-9.97,10.08c-19.99,0-39.98.15-59.97-.11-4.92-.06-6.22,1.54-6.05,6.24.33,9.48.09,18.99.1,28.48q0,6.59,6.4,6.61c17.32,0,34.65,0,51.97,0,1.98,0,3.96,0,6.89,0,0,4.4,0,8.47,0,12.55,0,6.16-.22,12.34.07,18.49.19,3.98-1.26,5.18-5.12,5.16-17.99-.11-35.98,0-53.97.04-1.81,0-3.62,0-5.9,0-.14,2.03-.34,3.62-.34,5.22-.03,12.66.21,25.33-.13,37.98-.13,4.78,1.54,5.82,5.97,5.78,22.82-.19,45.64-.09,68.46-.09,1.77,0,3.53,0,6.38,0-4.54,7.95-9.33,14.64-12.36,22.05-4.73,11.55-12.04,15.21-24.71,14.65-27.1-1.21-54.29-.37-81.44-.37-1.97,0-3.94,0-6.32,0V0h120.02Z"/>
    <path class="cls-1" d="m173.91,56.68v23.02c.43.07.87.13,1.3.2,2.19-5.98,4.26-12,6.65-17.9.67-1.66,2.02-3.77,3.51-4.26,16.71-5.4,33.69-6.64,50.5-.82,16.51,5.72,23.69,18.97,26.32,35.28.63,3.94,1.07,7.95,1.08,11.93.09,30.17.04,60.33.03,90.5,0,.97-.19,1.94-.32,3.28h-40.35c0-2.2,0-4.16,0-6.11,0-25.33.11-50.67-.1-76-.04-5.27-.82-10.64-2.08-15.76-1.72-6.94-6.75-11.08-13.71-12.28-10.74-1.84-20.95.17-30.23,5.83-1.49.91-2.49,3.79-2.52,5.77-.22,16-.15,32-.16,48,0,14.83-.17,29.67.1,44.5.09,4.84-1,6.84-6.32,6.56-8.64-.46-17.33-.06-25.99-.14-8.98-.08-8.4,1.45-8.41-8.17-.03-42.17-.02-84.33-.01-126.5,0-1.5-.24-3.09.19-4.46.31-.98,1.57-2.35,2.42-2.36,12.45-.15,24.91-.1,38.1-.1Z"/>
    <path class="cls-1" d="m851.76,213.04c12.05,7.51,24.2,11.76,37.23,13.36,10.4,1.28,20.7.73,30.39-3.59,12.23-5.45,20.31-14.78,22.21-28.1,1.49-10.42,1.42-21.07,2.04-31.62-.58-.2-1.16-.39-1.75-.59-1.31,1.3-2.7,2.54-3.92,3.92-3.19,3.62-6.54,7.14-9.39,11.02-3.26,4.44-7.26,6.91-12.81,7.46-22.64,2.27-43.43-1.16-58.65-20-12.05-14.92-13.96-32.67-10.72-50.72,5.61-31.32,28.33-50.86,60.56-53.16,19.17-1.37,37.83,1.14,55.95,7.75,3.98,1.45,5.69,3.32,5.66,7.83-.24,36.31-.13,72.63-.27,108.94-.11,28.12-19.41,50.63-46.95,57.05-22.29,5.19-43.93,2.24-65.16-5.5-3.2-1.17-4.76-2.86-4.51-6.58.37-5.46.1-10.97.1-17.48Zm91.43-91.98c0-6.82,0-13.65,0-20.47,0-1.33,0-2.66,0-3.99-.01-13.98.02-14.12-13.69-16.9-15.16-3.08-29.75-1.9-41.84,8.81-13.92,12.32-16.86,28.47-13.94,46.02,2.3,13.82,9.61,23.99,23.2,28.73,15.05,5.24,29.54,2.65,43.44-4.15,1.49-.73,2.65-3.65,2.7-5.59.26-10.81.12-21.64.13-32.45Z"/>
    <path class="cls-1" d="m1223.8,128.09c.44-18.77,5.03-36.17,18.98-49.48,19.64-18.74,43.21-22.18,68.14-13.77,23.78,8.02,35.12,26.65,38.35,50.78,2.2,16.41.17,32.23-7.49,47.04-8.69,16.81-22.69,26.51-41.19,29.97-13.03,2.43-25.93,1.85-38.33-2.79-22.74-8.5-34.13-25.95-37.51-49.29-.6-4.11-.65-8.29-.95-12.44Zm98.94-1.23c-.14-10.69-1.48-20.7-5.9-30.08-5.68-12.05-15.06-19.01-28.54-19.27-13.57-.27-23.47,6.14-29.98,18.01-4.52,8.24-6.24,17.2-6.63,26.4-.62,14.47.27,28.8,8.91,41.22,13.23,19.02,40.5,18.48,53.09-.91,7.07-10.89,8.86-23.15,9.06-35.37Z"/>
    <path class="cls-1" d="m1455.81,190.5c0-2.61,0-4.56,0-6.51,0-23.15.01-46.31-.02-69.46,0-2.99.02-6.03-.43-8.97-3.32-21.4-20.02-31.38-41.24-24.27-6.09,2.04-11.7,5.5-17.52,8.32-3.5,1.7-4.76,4.33-4.73,8.39.19,28.81,0,57.63.21,86.45.04,4.81-1.31,6.52-6.16,6.13-4.96-.4-9.99-.22-14.98-.04-3.13.11-4.44-.82-4.44-4.2.09-39.14.09-78.29,0-117.43,0-3.54,1.32-4.7,4.68-4.61,5.49.15,10.99.14,16.49,0,3.27-.08,4.43,1.32,4.34,4.48-.14,4.99-.06,9.99-.02,14.99.01,1.57.17,3.14,1.39,5.09,4.66-6.37,9.66-12.53,13.87-19.19,2.81-4.44,6.48-6.62,11.37-6.85,10.58-.48,21.3-1.87,31.74-.77,17.1,1.8,27.68,13.45,29.85,30.6.63,4.94,1.1,9.94,1.12,14.92.11,25.82-.05,51.64.15,77.45.04,4.53-1.43,5.74-5.72,5.53-6.43-.32-12.89-.08-19.95-.08Z"/>
    <path class="cls-1" d="m1083.5,190.46c-7.47,0-14.44.16-21.39-.15-1.18-.05-3.07-1.99-3.27-3.27-.8-5.06-1.05-10.21-1.61-16.54-3.2,3.62-6.39,6.31-8.43,9.7-10.48,17.44-26.35,15.57-42.2,11.36-16.4-4.35-25.04-15.57-26.17-31.39-1.22-17.07,6.62-30.88,22.01-38.01,14.1-6.53,29.08-8.01,44.41-6.81,3.44.27,6.87.54,10.58.82.85-8.26.64-15.92-2.85-22.94-4.49-9.05-12.98-11.98-22.28-12.85-13.72-1.29-26.73,2.27-41.06,7.23,5.27-8.16,9.74-15.19,14.35-22.13.47-.71,1.67-1.12,2.6-1.32,15.41-3.29,30.89-5.31,46.49-1.48,17.14,4.2,27.15,16.27,27.46,34.03.45,25.99.3,51.99.5,77.98.04,4.98.52,9.96.85,15.77Zm-25.72-40.9c0-4.66-.17-9.32.06-13.97.16-3.3-.84-5.01-4.36-4.96-6.15.08-12.32-.27-18.44.09-7.21.43-14.22,2.09-19.99,6.8-6.99,5.71-9.97,13.2-8.45,22.15,1.47,8.68,7.42,13.22,15.53,14.79,11.47,2.22,22.55.55,32.72-5.35,1.47-.85,2.66-3.29,2.81-5.09.39-4.79.13-9.64.13-14.46Z"/>
    <path class="cls-1" d="m560.62,190.5c0-2.71,0-4.66,0-6.62,0-56.62,0-113.23,0-169.85q0-6.65,6.48-6.68c5.99-.02,11.99.12,17.98-.04,3.54-.1,5.01,1,5.01,4.83-.09,57.95-.09,115.89,0,173.84,0,3.49-1.14,4.66-4.6,4.58-7.97-.19-15.95-.06-24.87-.06Z"/>
    <path class="cls-1" d="m1168.79,175.7c-4.42,5.95-7.16,11.84-11.76,15.15-3.74,2.7-9.76,3.34-14.67,3.07-6-.33-12.37-1.56-17.72-4.16-10.19-4.96-13.78-14.54-13.76-25.33.06-25.14.42-50.27.7-75.41.09-8.43.16-8.43-8.27-8.45-1.8,0-3.59,0-6.51,0,3.56-5.71,6.6-10.58,9.64-15.45.09-.14.2-.35.32-.37,7.97-1.14,5-7.34,5.38-11.86.41-4.78-1.23-10.82,1.12-14.04,2.33-3.19,8.51-3.63,13.04-5.15,3.27-1.1,6.6-1.98,10.9-3.25,0,7.27,0,13.83,0,20.4q0,13.01,13.08,13.01c5.32,0,10.64,0,16.41,0v16.74c-7.39,0-14.82,0-22.24,0-7.56,0-7.64,0-7.71,7.54-.21,20.98-.45,41.96-.45,62.94,0,4.27.44,8.72,1.68,12.78,2.76,9.08,12.85,14.12,24.46,12.82,1.62-.18,3.23-.48,6.37-.96Z"/>
    <path class="cls-1" d="m787.96,62.16v27.22c-1.4-.42-2.51-.59-3.47-1.06-16.1-7.93-31.77-6.8-47.23,1.91-2.99,1.68-4.14,3.64-4.13,7.1.13,28.81.08,57.61.08,86.42,0,1.97,0,3.94,0,6.65-8.34,0-16.26.06-24.18-.1-.71-.01-1.69-1.35-2.01-2.25-.36-1.05-.14-2.3-.14-3.47,0-38.13.08-76.27-.11-114.4-.02-4.75,1.53-6.14,6-5.9,5.31.28,10.66.19,15.98.02,3.5-.12,4.65,1.27,4.51,4.71-.23,5.8-.06,11.61-.06,18.33,1.53-1.08,2.51-1.53,3.16-2.27,3.6-4.15,7.53-8.1,10.56-12.63,4.48-6.72,10.74-9.81,18.39-10.19,7.41-.36,14.84-.08,22.65-.08Z"/>
    <path class="cls-1" d="m641,87.87c5.23-6.08,9.76-10.7,13.52-15.87,4.22-5.8,9.55-9.17,16.62-9.48,6.79-.29,13.59-.32,20.38-.15,1.29.03,3.63,1.46,3.66,2.31.28,8.08.17,16.16.17,23.92-7.95-1.96-15.2-4.55-22.64-5.39-10.95-1.23-21.1,2.37-30.11,8.52-1.52,1.03-2.06,4.34-2.07,6.6-.13,28.48-.09,56.97-.09,85.45q0,6.7-6.87,6.71c-3.83,0-7.66,0-11.49,0q-7.65,0-7.65-7.43c0-27.98,0-55.97,0-83.95,0-9.83.12-19.66-.06-29.48-.07-3.75.95-5.54,5.04-5.35,5.48.26,10.99.18,16.49.02,3.49-.1,4.74,1.35,4.58,4.76-.19,4.16-.08,8.33-.02,12.49.02,1.56.26,3.13.55,6.31Z"/>
    <path class="cls-1" d="m828.94,64.21v125.8h-24.95v-125.8h24.95Z"/>
    <path class="cls-1" d="m1209.87,190.46c-7.6,0-14.89.12-22.17-.14-.99-.03-2.08-1.83-2.82-3-.38-.6-.08-1.62-.08-2.46,0-38.47,0-76.94,0-115.4,0-1.63.14-3.27.23-5.24h24.84v126.24Z"/>
    <path class="cls-1" d="m1434.6,237.03c0,9.57,0,19.14,0,28.71,0,3.83-.1,7.67.14,11.49.22,3.57-1.32,4.58-4.69,4.53-11.43-.18-9.16.71-9.23-8.77-.13-17.99-.04-35.98-.04-53.97,0-1.81,0-3.62,0-5.74,7.12-.97,13.1-1.67,18.25,5.21,7.87,10.5,16.93,20.12,25.44,30.14.73.85,1.15,1.96,1.72,2.95l1.36-.86v-37.53h13.41v67.79c-3.54,1.62-5.86.31-8.2-2.42-11.2-12.99-22.57-25.83-33.85-38.75-.97-1.11-1.76-2.39-2.64-3.59-.56.27-1.11.54-1.67.81Z"/>
    <path class="cls-1" d="m1094,283.47c-21.44-.07-35.94-14.76-35.79-36.26.14-21.09,15.1-36.37,35.58-36.36,20.94,0,35.92,15.32,35.76,36.55-.16,21.36-14.72,36.13-35.55,36.07Zm-21.92-37.01c.4.13.8.26,1.21.39,0,1.66-.12,3.33.02,4.98.85,9.9,7.86,18.18,16.78,19.89,9.21,1.77,17.59-2.33,21.7-11.2,4.64-10.01,4.43-20.1-1.7-29.45-8.02-12.24-25.36-11.96-32.75.68-2.58,4.41-3.55,9.78-5.25,14.7Z"/>
    <path class="cls-1" d="m1044.58,244.79c0,10.47.1,20.25-.13,30.02-.03,1.21-1.57,2.91-2.82,3.47-12.42,5.57-25.26,7.25-38.35,2.68-15.38-5.37-23.54-19.81-21.83-37.93,1.5-15.9,13.28-28.36,29.12-31.23,8.91-1.61,17.5-.63,26.17,1.52,3.64.9,4.9,2.62,4.54,6.21-.26,2.63-.05,5.31-.05,8.93-2.22-1.09-3.92-1.84-5.55-2.74-6.1-3.37-12.69-4.05-19.39-3.14-14.04,1.91-22.75,14.99-20.13,29.89,2.48,14.12,14.53,22.35,28.52,19.69,4.69-.89,7.76-2.56,6.9-8.11-.37-2.41-.06-4.92-.06-8.08h-16.32c2.7-9.83,4.44-11.18,13.73-11.18,5.15,0,10.3,0,15.66,0Z"/>
    <path class="cls-1" d="m1223.41,226.65c-7.47-1.48-14.48-3.76-21.58-4.06-9.84-.42-17.39,4.68-21.31,13.76-4.27,9.89-3.42,19.73,3.62,28.19,6.54,7.86,15.34,9.37,24.99,7.19,3.1-.7,5.03-2.12,4.68-5.8-.3-3.1-.06-6.25-.06-9.93h-15.92c1.69-8.61,4.64-11.19,12.28-11.19,5.62,0,11.23,0,17.02,0,0,10.38.08,20.16-.11,29.93-.02,1.14-1.27,2.81-2.36,3.3-12.9,5.83-26.18,7.75-39.73,2.56-15.06-5.77-22.95-20.26-21.1-38.01,1.61-15.36,13.64-27.91,29.2-30.77,8.9-1.64,17.53-.69,26.19,1.55,3.13.81,4.51,2.16,4.25,5.45-.24,2.91-.05,5.86-.05,7.83Z"/>
    <path class="cls-1" d="m1298.71,281.67c-5.29,0-9.46.26-13.56-.14-1.43-.14-3.14-1.63-3.98-2.97-4.66-7.48-9.28-15.01-13.52-22.73-2.02-3.68-5.06-3.93-7.97-2.73-1.34.55-2.29,3.5-2.38,5.4-.3,6.31-.28,12.65-.06,18.97.11,3.33-1.14,4.33-4.33,4.28-11.51-.19-9.43.86-9.5-9.07-.12-17.81-.03-35.63-.03-53.44,0-1.95,0-3.9,0-5.83,10.7,0,20.81-.55,30.83.18,7.44.54,12.32,5.53,14.26,12.82,2.04,7.64.83,14.76-5.45,19.97-3.04,2.53-3.03,4.25-1.11,7.33,5.54,8.85,10.77,17.9,16.78,27.95Zm-41.43-36.84c2.93-1.03,5.26-2.36,7.67-2.57,4.54-.4,8.18-1.72,9.67-6.38,1.21-3.77,1.06-8.14-2.62-9.72-4.03-1.73-8.88-1.61-13.39-2.13-.37-.04-1.27,1.18-1.28,1.82-.1,6.39-.06,12.78-.06,18.97Z"/>
    <path class="cls-1" d="m1344.99,240.1v11.38c-5.98,0-11.76.18-17.53-.06-3.67-.15-4.93,1.09-5.01,4.82-.3,14.3-.42,14.3,13.98,14.3,5.32,0,10.63,0,16,0-1.18,8.22-4.44,11.18-11.98,11.18-8.66,0-17.33.02-25.99-.01-1.78,0-3.56-.19-5.59-.3v-68.21h40.08c0,2.74.36,5.71-.19,8.51-.2,1.04-2.51,2.29-3.9,2.36-5.99.27-12,.27-17.99.08-3.25-.1-4.43,1.04-4.37,4.3.24,14.4-1.45,11.32,11,11.65,3.77.1,7.55.02,11.49.02Z"/>
    <path class="cls-1" d="m1400.61,251.48c-6.23,0-12.05.16-17.85-.06-3.53-.13-4.77,1.19-4.53,4.64.23,3.31.25,6.67,0,9.98-.28,3.63,1.34,4.58,4.67,4.52,8.47-.15,16.94-.05,25.49-.05-1.97,9.11-4.41,11.19-12.76,11.2-8.99,0-17.97-.02-26.96,0-2.34,0-4.24-.13-4.21-3.34.14-21.46.18-42.92.27-64.38,0-.15.12-.3.35-.85h39.39c0,2.83.36,5.81-.19,8.6-.2,1.02-2.51,2.27-3.89,2.32-7.12.23-14.24.11-21.73.11v15.98c5.05,0,9.99-.06,14.93.01,7.85.11,7.86.15,7.47,8.18-.04.8-.22,1.6-.45,3.14Z"/>
    <path class="cls-1" d="m816.25,17.96c8.05-.02,13.91,5.58,13.85,13.22-.06,7.39-5.81,12.93-13.58,13.09-7.81.16-13.91-5.71-13.83-13.33.07-7.48,5.82-12.97,13.57-12.99Z"/>
    <path class="cls-1" d="m1183.72,30.83c.12-7.27,6.06-12.88,13.64-12.88,8.03,0,13.89,5.55,13.86,13.12-.03,7.56-6,13.25-13.86,13.21-7.72-.04-13.76-6-13.64-13.45Z"/>
  </g>
</svg>