<?xml version="1.0" encoding="UTF-8"?>
<svg id="Layer_2" data-name="Layer 2" xmlns="http://www.w3.org/2000/svg" viewBox="0 0 589.05 126.5">
  <defs>
    <style>
      .cls-1 {
        fill: #fff;
        stroke-width: 0px;
      }
    </style>
  </defs>
  <g id="Layer_1-2" data-name="Layer 1">
    <g>
      <path class="cls-1" d="m0,3.4c1.65-.06,3.31-.21,4.95-.16,9.76.28,19.51.67,29.27.87,4.03.08,6.26,1.58,7.93,5.59,8.16,19.55,16.76,38.91,25.19,58.34,2.67,6.17,5.3,12.36,7.96,18.53.29.68.69,1.32,1.43,2.74.85-1.99,1.43-3.33,1.99-4.68,10.38-24.81,20.84-49.58,31.05-74.46,1.84-4.49,4.31-6.94,9.32-7.05,7.85-.17,15.69-.66,23.53-1.14,2.39-.15,3.02,1.02,2.85,3-.16,1.78,1.06,4.11-2.33,4.54-10.4,1.3-10.82,1.75-10.2,12.17,1.15,19.26,2.48,38.51,3.71,57.77.58,9.07.98,18.15,1.66,27.21.57,7.63,1.5,8.5,9.09,10.12,5.17,1.1,5.95,2.42,4.51,7.22-5.21,0-10.35-.09-15.49.02-9.75.22-19.5.54-29.25.85-2.26.07-4.56.55-4.92-2.85-.34-3.23,1.28-4.3,4.14-4.87,8.85-1.78,10.32-3.62,9.83-12.03-1.2-20.61-2.44-41.21-3.69-61.81-.11-1.86-.39-3.71-1.37-5.75-1.17,2.47-2.42,4.91-3.5,7.43-6.33,14.71-12.64,29.43-18.91,44.17-4.61,10.83-9.1,21.7-13.78,32.5-.87,2.01-1.31,5.44-4.23,4.75-1.67-.39-3.2-3.05-4.06-5.01-9.65-21.96-19.18-43.97-28.7-65.98-3.83-8.84-7.57-17.72-11.36-26.58-.38-.89-.89-1.72-2.13-2.51-.1,1.13-.24,2.26-.28,3.39-.95,26.35-1.89,52.7-2.8,79.06-.18,5.24.95,6.73,5.92,8.28,1.6.5,3.27.8,4.85,1.38,2.42.88,3.81,3.68,2.71,5.94-.35.73-1.95,1.21-2.99,1.21-9.06.04-18.13-.07-27.19-.08-1.56,0-3.12.31-4.68.48C0,123.53,0,121.06,0,118.59c1.21-.56,2.38-1.3,3.65-1.66,4.53-1.29,6.49-4.14,6.45-8.89-.05-6.14.3-12.29.54-18.44.88-22.36,1.9-44.72,2.64-67.09.31-9.41-.37-9.86-9.61-12.06C2.33,10.14,1.22,8.92,0,8.12,0,6.55,0,4.98,0,3.4Z"/>
      <path class="cls-1" d="m357.3,57.22c3.09-3.31,6.12-6.68,9.29-9.92,10.19-10.43,20.49-20.77,30.6-31.28,1.08-1.13,2.01-3.45,1.57-4.71-.43-1.22-2.62-2.2-4.2-2.57-5.83-1.33-6.24-1.79-5.2-8.21.8-.04,1.66-.12,2.51-.12,11.53.04,23.06.06,34.59.16,1.47.01,3.73-1.05,3.84,1.75.09,2.34.87,5.26-2.75,5.87-8.14,1.37-13.71,6.61-19.19,12.21-7.68,7.84-15.64,15.41-23.48,23.11-2.08,2.04-4.32,3.96-6.12,6.23-.62.79-.67,2.91-.05,3.68,10.69,13.42,21.51,26.74,32.34,40.05,3.82,4.7,7.77,9.28,11.57,13.99,3.2,3.96,7.39,6.06,12.26,7.09.98.21,1.96.52,2.87.93,2.71,1.23,2.29,3.75,1.83,5.84-.16.71-2.21,1.42-3.41,1.44-15.58.16-31.16.2-46.74.27-1.72,0-3.69.24-3.62-2.27.06-2.11-.36-4.75,2.96-5.05.11-.01.23,0,.33-.05,2.25-.86,4.49-1.73,6.73-2.6-1.16-2.2-2-4.66-3.53-6.57-9.03-11.29-18.21-22.47-27.37-33.67-2.59-3.17-5.25-6.28-7.86-9.39-.47.34-.79.46-.79.58.07,14.79,0,29.59.34,44.38.12,4.96,1.54,5.95,6.54,6.88,2.6.48,5.1.82,5.54,4.28.32,2.57-.22,3.81-3.08,3.63-6.16-.37-12.33-.85-18.49-.79-7.73.08-15.45.69-23.18,1.01-1.94.08-4.25.71-4.48-2.48-.2-2.72.62-4.59,3.57-5.09,9.92-1.66,9.81-1.66,9.66-12.57-.39-28.51-.68-57.02-.99-85.52-.07-6.08-1.66-7.98-7.68-8.9-5.08-.78-5.83-1.49-6.06-5.08-.16-2.51.67-3.3,3.26-3.18,8.29.4,16.58.71,24.88.73,6.28.02,12.55-.46,18.83-.67,1.43-.05,3.43-.88,3.43,1.77,0,2.22.96,4.96-2.46,5.72-1.75.39-3.53.65-5.28,1.06-3.12.74-5.29,2.27-5.23,5.93.18,10.88.27,21.76.39,32.63.03,2.93,0,5.87,0,8.8.5.21,1.01.43,1.51.64Z"/>
      <path class="cls-1" d="m526.64,10.86c0,6.09-.03,11.68,0,17.28.05,7.86.18,15.71.22,23.57.01,1.92.29,3.17,2.75,3.11,7.52-.18,15.04-.21,22.55-.15,3.48.03,5.51-1.37,6.05-4.88.29-1.88.95-3.72,1.09-5.61.23-2.93,1.65-4.04,4.53-4.16,2.34-.1,3.27.5,3.17,2.93-.28,6.49-.56,13-.52,19.49.03,4.36.69,8.72.94,13.09.08,1.37,1.06,3.43-1.55,3.64-2.23.18-4.66.53-5.44-2.52-.5-1.96-.97-3.92-1.5-5.87-1.39-5.09-2.73-6.19-7.97-6.23-7.72-.06-15.45-.01-23.4-.01-.1.51-.32,1.13-.32,1.75.03,12.24.04,24.47.14,36.71.05,5.79,1.09,7.25,7.01,7.65,8.49.57,17.02.85,25.53.67,7.41-.16,12.76-4.41,16.64-10.51,1.68-2.65,3.1-5.47,4.68-8.18,1.38-2.37,5.9-2.93,7.54-.85.41.52.25,1.66.06,2.45-1.89,7.73-3.88,15.43-5.76,23.16-1.08,4.46-1.38,4.77-6.2,4.73-20.3-.19-40.6-.52-60.9-.53-7.73,0-15.46.78-23.19,1.06-1.54.06-3.82,1.04-4.04-2.01-.26-3.6.67-5.09,3.68-5.56.33-.05.67-.04,1-.1,9.11-1.52,10.27-2.83,10.19-11.97-.26-27.27-.55-54.54-.87-81.81-.12-10.34-.59-10.91-10.75-13.08-2.67-.57-4.91-1.02-4.66-4.71.18-2.64.91-3.46,3.6-3.31,8.84.47,17.71.99,26.56.93,17.83-.13,35.66-.62,53.49-1.01,4.71-.1,4.99.13,6,4.76,1.51,6.89,3.18,13.75,4.7,20.64.32,1.44,1.92,3.35-.67,4.25-2.17.76-4.49,1.18-5.95-1.35-1.4-2.43-2.59-4.97-4.03-7.37-4.02-6.68-9.85-10.18-17.78-10.1-8.73.08-17.45.02-26.61.02Z"/>
      <path class="cls-1" d="m261.07,123.5c-3.53,0-7.07-.03-10.61,0-10.98.12-21.96.26-32.94.4-1.12.01-2.24.16-3.36.15-1.57-.02-3.63.7-3.75-2-.1-2.25-.39-4.63,2.7-5.29,2.08-.44,4.15-.93,6.23-1.41,3.29-.75,4.52-3.01,4.48-6.18-.37-29.96-.75-59.92-1.12-89.88-.1-7.76-.99-8.74-8.5-10.19-1.56-.3-3.61-.83-4.33-1.95-.83-1.29-.77-3.46-.37-5.07.15-.58,2.42-.86,3.72-.87,14.34-.13,28.68-.21,43.03-.19,1.18,0,3.24.68,3.36,1.33.37,2.02,1.34,4.69-1.72,5.72-1.79.6-3.69.9-5.55,1.3-4.45.95-5.92,2.6-5.87,7.1.19,19.08.45,38.16.65,57.24.11,10.66.1,21.33.28,31.99.13,7.89.9,8.7,8.52,10.25,5.39,1.1,5.95,1.91,5.17,7.56Z"/>
      <path class="cls-1" d="m304.46,110.73c.19,7.66-5.48,13.92-12.73,14.04-8.31.14-14.95-5.53-14.89-13.15.07-9.03,4.88-14.34,13-15.05,7.94-.7,14.41,5.91,14.62,14.17Z"/>
      <path class="cls-1" d="m168.14,111.21c-1.11-6.82,5.61-14.09,14.26-13.92,7.22.14,13.11,6.46,13.1,14.32-.02,8.27-5.82,13.76-14.44,13.85-5.88.07-14.03-6.25-12.92-14.25Z"/>
      <path class="cls-1" d="m446.83,109.77c-.08-8.29,5.59-14.07,13.78-14.06,7.29,0,13.29,6.34,13.34,14.07.05,8.18-5.58,14.13-13.4,14.15-8.08.03-13.64-5.71-13.72-14.16Z"/>
    </g>
  </g>
</svg>