<?xml version="1.0" encoding="UTF-8"?>
<svg id="Layer_2" data-name="Layer 2" xmlns="http://www.w3.org/2000/svg" viewBox="0 0 338.04 180.03">
  <defs>
    <style>
      .cls-1 {
        fill: #fff;
        stroke-width: 0px;
      }
    </style>
  </defs>
  <g id="Layer_1-2" data-name="Layer 1">
    <g>
      <path class="cls-1" d="m12.48.08c7.78,0,15.56.07,23.33-.08,2.28-.04,3.35.8,4.21,2.8,3.62,8.47,7.37,16.89,11.11,25.31,5.86,13.18,11.82,26.32,17.62,39.53,5.01,11.44,9.9,22.93,14.73,34.45,1.33,3.17,2.26,6.5,3.37,9.76.23.66.44,1.33.81,2.43.41-.74.67-1.07.8-1.45,3.08-9.21,6.12-18.43,9.23-27.63,1.88-5.57,3.86-11.11,5.81-16.66.53-1.5.44-2.82-.36-4.28-6.49-11.75-12.92-23.55-19.36-35.33-4.79-8.77-9.58-17.53-14.36-26.3-.21-.39-.41-.79-.6-1.19-.45-.94-.08-1.38.89-1.39,1.28-.02,2.56,0,3.83,0,9.44,0,18.89.01,28.33-.02,1.24,0,2.02.27,2.58,1.54,4.63,10.57,9.33,21.12,14.02,31.66.26.58.56,1.13.84,1.7.15,0,.3-.02.45-.03.32-1.12.62-2.25.98-3.36,3.11-9.78,6.25-19.55,9.34-29.34.48-1.52,1.25-2.2,2.98-2.19,9.72.09,19.44.05,29.16.04,2.22,0,2.4.23,1.57,2.26-4.41,10.79-8.85,21.57-13.25,32.36-4.04,9.92-8.08,19.85-12.01,29.81-.39,1-.33,2.49.13,3.47,2.99,6.5,6.21,12.9,9.24,19.39,3.5,7.49,6.91,15.02,10.28,22.57.33.74.36,1.78.14,2.57-2.29,8.29-4.67,16.56-7,24.84-.72,2.56-1.38,5.15-2.08,7.72-.14.5-.32.99-.48,1.49-.18.04-.37.08-.55.12-4.23-8.04-8.47-16.08-12.69-24.13-4.24-8.08-8.46-16.16-12.89-24.63-.43,1.09-.78,1.95-1.11,2.82-3.56,9.22-7.04,18.46-10.69,27.64-4.52,11.4-9.17,22.76-13.78,34.13-2.15,5.3-4.38,10.56-6.5,15.87-.5,1.24-1.27,1.73-2.55,1.61-.44-.04-.89-.05-1.33.01-1.35.19-2.16-.36-2.73-1.62-2.86-6.26-5.77-12.49-8.68-18.73-6.31-13.53-12.66-27.04-18.95-40.58-6.37-13.69-12.71-27.39-19.04-41.09-4.45-9.62-8.86-19.26-13.32-28.87-3.48-7.5-7.01-14.98-10.54-22.46-.26-.55-.61-1.05-.92-1.57,0-8.33,0-16.67,0-25Z"/>
      <path class="cls-1" d="m265.82.16c21.67,0,43.33,0,65,0,1.89,0,3.77.18,5.66.17,1.51,0,1.79.64,1.41,1.99-1.85,6.69-3.64,13.39-5.46,20.09-1.65,6.05-3.3,12.1-4.96,18.15q-.78,2.83-3.81,2.83c-27.44,0-54.89-.01-82.33-.02-2.28,0-4.56.04-6.83,0-1.19-.02-1.81.48-2.12,1.64-2.11,7.88-4.26,15.75-6.39,23.63-.36,1.34-.75,2.67-1.05,4.02-.24,1.08.21,1.72,1.39,1.73,1,.01,2,.04,3,.04,25.55,0,51.11-.02,76.66-.03.39,0,.78,0,1.17.02,1.77.07,2.09.47,1.63,2.16-2.68,9.97-5.37,19.93-8.06,29.89-.62,2.3-1.32,4.58-1.85,6.9-.34,1.48-1.14,1.98-2.59,1.95-3-.06-6,0-9,0-23.83,0-47.66.01-71.5-.02-1.65,0-2.45.5-2.9,2.2-3.18,12.14-6.46,24.24-9.72,36.36-2.16,8.04-4.36,16.07-6.5,24.12-.29,1.09-.93,1.4-1.93,1.39-2.89,0-5.78.01-8.67.01-12.17,0-24.33.01-36.5.01-2.94,0-3.03-.06-2.28-2.88,2.78-10.41,5.6-20.8,8.41-31.19,3.08-11.41,6.16-22.83,9.25-34.24,2.86-10.55,5.77-21.09,8.62-31.64,1.93-7.18,3.77-14.38,5.69-21.56,1.08-4.02,2.29-8.01,3.38-12.02,2.38-8.73,4.73-17.46,7.09-26.19,1.55-5.73,3.13-11.45,4.6-17.2.45-1.76,1.33-2.37,3.17-2.37,22.77.05,45.55.04,68.32.04Z"/>
      <polyline class="cls-1" points="12.48 25.08 0 0 12.48 .08"/>
    </g>
  </g>
</svg>